<mxfile host="drawio-plugin" modified="2023-12-10T19:27:41.229Z" agent="5.0 (X11; Linux x86_64) AppleWebKit/537.36 (KHTML, like Gecko) Chrome/111.0.0.0 Safari/537.36" etag="emiISjXxF4dMGs-KGrsd" version="20.5.3" type="embed"><diagram id="23iRSUPoRavnBvh4doch" name="Page-1"><mxGraphModel dx="1576" dy="895" grid="1" gridSize="10" guides="1" tooltips="1" connect="1" arrows="1" fold="1" page="1" pageScale="1" pageWidth="1169" pageHeight="827" background="#ffffff" math="0" shadow="0"><root><mxCell id="0"/><mxCell id="1" parent="0"/><mxCell id="3" value="AWS Cloud" style="points=[[0,0],[0.25,0],[0.5,0],[0.75,0],[1,0],[1,0.25],[1,0.5],[1,0.75],[1,1],[0.75,1],[0.5,1],[0.25,1],[0,1],[0,0.75],[0,0.5],[0,0.25]];outlineConnect=0;gradientColor=none;html=1;whiteSpace=wrap;fontSize=12;fontStyle=0;container=1;pointerEvents=0;collapsible=0;recursiveResize=0;shape=mxgraph.aws4.group;grIcon=mxgraph.aws4.group_aws_cloud;strokeColor=#232F3E;fillColor=none;verticalAlign=top;align=left;spacingLeft=30;fontColor=#232F3E;dashed=0;" vertex="1" parent="1"><mxGeometry x="20" y="150" width="1130" height="510" as="geometry"/></mxCell><mxCell id="28" value="VPC" style="points=[[0,0],[0.25,0],[0.5,0],[0.75,0],[1,0],[1,0.25],[1,0.5],[1,0.75],[1,1],[0.75,1],[0.5,1],[0.25,1],[0,1],[0,0.75],[0,0.5],[0,0.25]];outlineConnect=0;gradientColor=none;html=1;whiteSpace=wrap;fontSize=12;fontStyle=0;container=1;pointerEvents=0;collapsible=0;recursiveResize=0;shape=mxgraph.aws4.group;grIcon=mxgraph.aws4.group_corporate_data_center;strokeColor=#5A30B5;fillColor=none;verticalAlign=top;align=left;spacingLeft=30;fontColor=#5A30B5;dashed=0;strokeWidth=1.5;" vertex="1" parent="3"><mxGeometry x="20" y="30" width="1090" height="460" as="geometry"/></mxCell><mxCell id="29" value="" style="sketch=0;points=[[0,0,0],[0.25,0,0],[0.5,0,0],[0.75,0,0],[1,0,0],[0,1,0],[0.25,1,0],[0.5,1,0],[0.75,1,0],[1,1,0],[0,0.25,0],[0,0.5,0],[0,0.75,0],[1,0.25,0],[1,0.5,0],[1,0.75,0]];outlineConnect=0;fontColor=#232F3E;gradientColor=#945DF2;gradientDirection=north;fillColor=#5A30B5;strokeColor=#ffffff;dashed=0;verticalLabelPosition=bottom;verticalAlign=top;align=center;html=1;fontSize=12;fontStyle=0;aspect=fixed;shape=mxgraph.aws4.resourceIcon;resIcon=mxgraph.aws4.vpc;" vertex="1" parent="28"><mxGeometry width="25" height="25" as="geometry"/></mxCell><mxCell id="23" value="Fargate&lt;br&gt;(auto-scaling)" style="points=[[0,0],[0.25,0],[0.5,0],[0.75,0],[1,0],[1,0.25],[1,0.5],[1,0.75],[1,1],[0.75,1],[0.5,1],[0.25,1],[0,1],[0,0.75],[0,0.5],[0,0.25]];outlineConnect=0;gradientColor=none;html=1;whiteSpace=wrap;fontSize=12;fontStyle=0;container=1;pointerEvents=0;collapsible=0;recursiveResize=0;shape=mxgraph.aws4.groupCenter;grIcon=mxgraph.aws4.group_auto_scaling_group;grStroke=1;strokeColor=#D86613;fillColor=none;verticalAlign=top;align=center;fontColor=#D86613;dashed=1;spacingTop=25;" vertex="1" parent="28"><mxGeometry x="20" y="80" width="230" height="180" as="geometry"/></mxCell><mxCell id="25" value="API Gateway&lt;br&gt;container" style="sketch=0;points=[[0,0,0],[0.25,0,0],[0.5,0,0],[0.75,0,0],[1,0,0],[0,1,0],[0.25,1,0],[0.5,1,0],[0.75,1,0],[1,1,0],[0,0.25,0],[0,0.5,0],[0,0.75,0],[1,0.25,0],[1,0.5,0],[1,0.75,0]];outlineConnect=0;fontColor=#232F3E;gradientColor=#F78E04;gradientDirection=north;fillColor=#D05C17;strokeColor=#ffffff;dashed=0;verticalLabelPosition=bottom;verticalAlign=top;align=center;html=1;fontSize=12;fontStyle=0;aspect=fixed;shape=mxgraph.aws4.resourceIcon;resIcon=mxgraph.aws4.containers;" vertex="1" parent="23"><mxGeometry x="35" y="80" width="40" height="40" as="geometry"/></mxCell><mxCell id="26" value="API Gateway&lt;br&gt;container" style="sketch=0;points=[[0,0,0],[0.25,0,0],[0.5,0,0],[0.75,0,0],[1,0,0],[0,1,0],[0.25,1,0],[0.5,1,0],[0.75,1,0],[1,1,0],[0,0.25,0],[0,0.5,0],[0,0.75,0],[1,0.25,0],[1,0.5,0],[1,0.75,0]];outlineConnect=0;fontColor=#232F3E;gradientColor=#F78E04;gradientDirection=north;fillColor=#D05C17;strokeColor=#ffffff;dashed=0;verticalLabelPosition=bottom;verticalAlign=top;align=center;html=1;fontSize=12;fontStyle=0;aspect=fixed;shape=mxgraph.aws4.resourceIcon;resIcon=mxgraph.aws4.containers;" vertex="1" parent="23"><mxGeometry x="155" y="80" width="40" height="40" as="geometry"/></mxCell><mxCell id="31" value="" style="sketch=0;points=[[0,0,0],[0.25,0,0],[0.5,0,0],[0.75,0,0],[1,0,0],[0,1,0],[0.25,1,0],[0.5,1,0],[0.75,1,0],[1,1,0],[0,0.25,0],[0,0.5,0],[0,0.75,0],[1,0.25,0],[1,0.5,0],[1,0.75,0]];outlineConnect=0;fontColor=#232F3E;gradientColor=#F78E04;gradientDirection=north;fillColor=#D05C17;strokeColor=#ffffff;dashed=0;verticalLabelPosition=bottom;verticalAlign=top;align=center;html=1;fontSize=12;fontStyle=0;aspect=fixed;shape=mxgraph.aws4.resourceIcon;resIcon=mxgraph.aws4.fargate;" vertex="1" parent="23"><mxGeometry x="102.5" width="25" height="25" as="geometry"/></mxCell><mxCell id="76" value="Cloud HSM (encryption)" style="points=[[0,0],[0.25,0],[0.5,0],[0.75,0],[1,0],[1,0.25],[1,0.5],[1,0.75],[1,1],[0.75,1],[0.5,1],[0.25,1],[0,1],[0,0.75],[0,0.5],[0,0.25]];outlineConnect=0;gradientColor=none;html=1;whiteSpace=wrap;fontSize=12;fontStyle=0;container=1;pointerEvents=0;collapsible=0;recursiveResize=0;shape=mxgraph.aws4.group;grIcon=mxgraph.aws4.group_corporate_data_center;strokeColor=#DD3522;fillColor=none;verticalAlign=top;align=left;spacingLeft=30;fontColor=#DD3522;dashed=0;strokeWidth=1.5;" vertex="1" parent="28"><mxGeometry x="290" y="40" width="780" height="400" as="geometry"/></mxCell><mxCell id="6" value="Elastic Kubernetes Service" style="points=[[0,0],[0.25,0],[0.5,0],[0.75,0],[1,0],[1,0.25],[1,0.5],[1,0.75],[1,1],[0.75,1],[0.5,1],[0.25,1],[0,1],[0,0.75],[0,0.5],[0,0.25]];outlineConnect=0;gradientColor=none;html=1;whiteSpace=wrap;fontSize=12;fontStyle=0;container=1;pointerEvents=0;collapsible=0;recursiveResize=0;shape=mxgraph.aws4.groupCenter;grIcon=mxgraph.aws4.group_auto_scaling_group;grStroke=1;strokeColor=#D86613;fillColor=none;verticalAlign=top;align=center;fontColor=#D86613;dashed=1;spacingTop=25;" vertex="1" parent="76"><mxGeometry x="10" y="37" width="750" height="200" as="geometry"/></mxCell><mxCell id="81" value="NS: chats" style="fillColor=none;strokeColor=#5A6C86;dashed=1;verticalAlign=top;fontStyle=0;fontColor=#5A6C86;" vertex="1" parent="6"><mxGeometry x="540" y="50" width="90" height="130" as="geometry"/></mxCell><mxCell id="49" value="NS: auth" style="fillColor=none;strokeColor=#5A6C86;dashed=1;verticalAlign=top;fontStyle=0;fontColor=#5A6C86;" vertex="1" parent="6"><mxGeometry x="20" y="50" width="90" height="130" as="geometry"/></mxCell><mxCell id="53" value="NS: offers" style="fillColor=none;strokeColor=#5A6C86;dashed=1;verticalAlign=top;fontStyle=0;fontColor=#5A6C86;" vertex="1" parent="6"><mxGeometry x="240" y="50" width="90" height="130" as="geometry"/></mxCell><mxCell id="54" value="Offers MS" style="sketch=0;html=1;dashed=0;whitespace=wrap;fillColor=#2875E2;strokeColor=#ffffff;points=[[0.005,0.63,0],[0.1,0.2,0],[0.9,0.2,0],[0.5,0,0],[0.995,0.63,0],[0.72,0.99,0],[0.5,1,0],[0.28,0.99,0]];verticalLabelPosition=top;align=center;verticalAlign=bottom;shape=mxgraph.kubernetes.icon;prIcon=pod;fontColor=#000000;labelPosition=center;" vertex="1" parent="6"><mxGeometry x="260" y="110" width="50" height="48" as="geometry"/></mxCell><mxCell id="63" value="R&amp;amp;R MS" style="sketch=0;html=1;dashed=0;whitespace=wrap;fillColor=#2875E2;strokeColor=#ffffff;points=[[0.005,0.63,0],[0.1,0.2,0],[0.9,0.2,0],[0.5,0,0],[0.995,0.63,0],[0.72,0.99,0],[0.5,1,0],[0.28,0.99,0]];verticalLabelPosition=top;align=center;verticalAlign=bottom;shape=mxgraph.kubernetes.icon;prIcon=pod;fontColor=#000000;labelPosition=center;" vertex="1" parent="6"><mxGeometry x="360" y="110" width="50" height="48" as="geometry"/></mxCell><mxCell id="67" value="Recomm-&lt;br&gt;endations MS" style="sketch=0;html=1;dashed=0;whitespace=wrap;fillColor=#2875E2;strokeColor=#ffffff;points=[[0.005,0.63,0],[0.1,0.2,0],[0.9,0.2,0],[0.5,0,0],[0.995,0.63,0],[0.72,0.99,0],[0.5,1,0],[0.28,0.99,0]];verticalLabelPosition=top;align=center;verticalAlign=bottom;shape=mxgraph.kubernetes.icon;prIcon=pod;fontColor=#000000;labelPosition=center;" vertex="1" parent="6"><mxGeometry x="460" y="110" width="50" height="48" as="geometry"/></mxCell><mxCell id="73" value="Chats MS" style="sketch=0;html=1;dashed=0;whitespace=wrap;fillColor=#2875E2;strokeColor=#ffffff;points=[[0.005,0.63,0],[0.1,0.2,0],[0.9,0.2,0],[0.5,0,0],[0.995,0.63,0],[0.72,0.99,0],[0.5,1,0],[0.28,0.99,0]];verticalLabelPosition=top;align=center;verticalAlign=bottom;shape=mxgraph.kubernetes.icon;prIcon=pod;fontColor=#000000;labelPosition=center;" vertex="1" parent="6"><mxGeometry x="560" y="110" width="50" height="48" as="geometry"/></mxCell><mxCell id="79" value="NS: reviews" style="fillColor=none;strokeColor=#5A6C86;dashed=1;verticalAlign=top;fontStyle=0;fontColor=#5A6C86;" vertex="1" parent="6"><mxGeometry x="340" y="50" width="90" height="130" as="geometry"/></mxCell><mxCell id="80" value="NS: recos" style="fillColor=none;strokeColor=#5A6C86;dashed=1;verticalAlign=top;fontStyle=0;fontColor=#5A6C86;" vertex="1" parent="6"><mxGeometry x="440" y="50" width="90" height="130" as="geometry"/></mxCell><mxCell id="84" value="NS: notifs" style="fillColor=none;strokeColor=#5A6C86;dashed=1;verticalAlign=top;fontStyle=0;fontColor=#5A6C86;" vertex="1" parent="6"><mxGeometry x="640" y="50" width="90" height="130" as="geometry"/></mxCell><mxCell id="85" value="Notifs MS" style="sketch=0;html=1;dashed=0;whitespace=wrap;fillColor=#2875E2;strokeColor=#ffffff;points=[[0.005,0.63,0],[0.1,0.2,0],[0.9,0.2,0],[0.5,0,0],[0.995,0.63,0],[0.72,0.99,0],[0.5,1,0],[0.28,0.99,0]];verticalLabelPosition=top;align=center;verticalAlign=bottom;shape=mxgraph.kubernetes.icon;prIcon=pod;fontColor=#000000;labelPosition=center;" vertex="1" parent="6"><mxGeometry x="660" y="110" width="50" height="48" as="geometry"/></mxCell><mxCell id="38" value="NS: users" style="fillColor=none;strokeColor=#5A6C86;dashed=1;verticalAlign=top;fontStyle=0;fontColor=#5A6C86;" vertex="1" parent="6"><mxGeometry x="120" y="50" width="110" height="130" as="geometry"/></mxCell><mxCell id="50" value="Auth MS" style="sketch=0;html=1;dashed=0;whitespace=wrap;fillColor=#2875E2;strokeColor=#ffffff;points=[[0.005,0.63,0],[0.1,0.2,0],[0.9,0.2,0],[0.5,0,0],[0.995,0.63,0],[0.72,0.99,0],[0.5,1,0],[0.28,0.99,0]];verticalLabelPosition=top;align=center;verticalAlign=bottom;shape=mxgraph.kubernetes.icon;prIcon=pod;fontColor=#000000;labelPosition=center;" vertex="1" parent="6"><mxGeometry x="40" y="110" width="50" height="48" as="geometry"/></mxCell><mxCell id="90" value="Users MS" style="sketch=0;html=1;dashed=0;whitespace=wrap;fillColor=#2875E2;strokeColor=#ffffff;points=[[0.005,0.63,0],[0.1,0.2,0],[0.9,0.2,0],[0.5,0,0],[0.995,0.63,0],[0.72,0.99,0],[0.5,1,0],[0.28,0.99,0]];verticalLabelPosition=top;align=center;verticalAlign=bottom;shape=mxgraph.kubernetes.icon;prIcon=pod;fontColor=#000000;labelPosition=center;" vertex="1" parent="6"><mxGeometry x="150" y="110" width="50" height="48" as="geometry"/></mxCell><mxCell id="44" value="AWS S3&lt;br&gt;(object storage)" style="sketch=0;points=[[0,0,0],[0.25,0,0],[0.5,0,0],[0.75,0,0],[1,0,0],[0,1,0],[0.25,1,0],[0.5,1,0],[0.75,1,0],[1,1,0],[0,0.25,0],[0,0.5,0],[0,0.75,0],[1,0.25,0],[1,0.5,0],[1,0.75,0]];outlineConnect=0;fontColor=#232F3E;gradientColor=#60A337;gradientDirection=north;fillColor=#277116;strokeColor=#ffffff;dashed=0;verticalLabelPosition=bottom;verticalAlign=top;align=center;html=1;fontSize=12;fontStyle=0;aspect=fixed;shape=mxgraph.aws4.resourceIcon;resIcon=mxgraph.aws4.s3;" vertex="1" parent="76"><mxGeometry x="50" y="310" width="40" height="40" as="geometry"/></mxCell><mxCell id="43" value="DocumentDB&lt;br&gt;(MongoDB-like)" style="sketch=0;points=[[0,0,0],[0.25,0,0],[0.5,0,0],[0.75,0,0],[1,0,0],[0,1,0],[0.25,1,0],[0.5,1,0],[0.75,1,0],[1,1,0],[0,0.25,0],[0,0.5,0],[0,0.75,0],[1,0.25,0],[1,0.5,0],[1,0.75,0]];outlineConnect=0;fontColor=#232F3E;gradientColor=#4D72F3;gradientDirection=north;fillColor=#3334B9;strokeColor=#ffffff;dashed=0;verticalLabelPosition=bottom;verticalAlign=top;align=center;html=1;fontSize=12;fontStyle=0;aspect=fixed;shape=mxgraph.aws4.resourceIcon;resIcon=mxgraph.aws4.documentdb_with_mongodb_compatibility;" vertex="1" parent="76"><mxGeometry x="170" y="310" width="40" height="40" as="geometry"/></mxCell><mxCell id="42" value="AuroraDB&lt;br&gt;(PostgreSQL-like)" style="sketch=0;points=[[0,0,0],[0.25,0,0],[0.5,0,0],[0.75,0,0],[1,0,0],[0,1,0],[0.25,1,0],[0.5,1,0],[0.75,1,0],[1,1,0],[0,0.25,0],[0,0.5,0],[0,0.75,0],[1,0.25,0],[1,0.5,0],[1,0.75,0]];outlineConnect=0;fontColor=#232F3E;gradientColor=#4D72F3;gradientDirection=north;fillColor=#3334B9;strokeColor=#ffffff;dashed=0;verticalLabelPosition=bottom;verticalAlign=top;align=center;html=1;fontSize=12;fontStyle=0;aspect=fixed;shape=mxgraph.aws4.resourceIcon;resIcon=mxgraph.aws4.aurora;" vertex="1" parent="76"><mxGeometry x="330" y="310" width="40" height="40" as="geometry"/></mxCell><mxCell id="55" style="edgeStyle=orthogonalEdgeStyle;rounded=0;orthogonalLoop=1;jettySize=auto;html=1;entryX=0.5;entryY=0;entryDx=0;entryDy=0;entryPerimeter=0;strokeColor=#006EAF;strokeWidth=2;fontColor=#000000;startArrow=classic;startFill=1;fillColor=#1ba1e2;" edge="1" parent="76" source="54" target="42"><mxGeometry relative="1" as="geometry"><Array as="points"><mxPoint x="280" y="260"/><mxPoint x="350" y="260"/></Array></mxGeometry></mxCell><mxCell id="65" style="edgeStyle=orthogonalEdgeStyle;rounded=0;orthogonalLoop=1;jettySize=auto;html=1;strokeColor=#006EAF;strokeWidth=2;fontColor=#000000;startArrow=classic;startFill=1;fillColor=#1ba1e2;" edge="1" parent="76" source="63" target="42"><mxGeometry relative="1" as="geometry"><Array as="points"><mxPoint x="380" y="260"/><mxPoint x="350" y="260"/></Array></mxGeometry></mxCell><mxCell id="71" style="edgeStyle=orthogonalEdgeStyle;rounded=0;orthogonalLoop=1;jettySize=auto;html=1;strokeColor=#006EAF;strokeWidth=2;fontColor=#000000;startArrow=classic;startFill=1;fillColor=#1ba1e2;" edge="1" parent="76" source="67" target="42"><mxGeometry relative="1" as="geometry"><Array as="points"><mxPoint x="480" y="260"/><mxPoint x="350" y="260"/></Array></mxGeometry></mxCell><mxCell id="39" value="AWS MSK&lt;br&gt;(managed Kafka)" style="sketch=0;outlineConnect=0;fontColor=#232F3E;gradientColor=none;fillColor=#4D27AA;strokeColor=none;dashed=0;verticalLabelPosition=bottom;verticalAlign=top;align=center;html=1;fontSize=12;fontStyle=0;aspect=fixed;pointerEvents=1;shape=mxgraph.aws4.msk_amazon_msk_connect;labelPosition=center;" vertex="1" parent="76"><mxGeometry x="450" y="310" width="40.52" height="40" as="geometry"/></mxCell><mxCell id="58" style="edgeStyle=orthogonalEdgeStyle;rounded=0;orthogonalLoop=1;jettySize=auto;html=1;strokeColor=#B266FF;strokeWidth=2;fontColor=#000000;startArrow=classic;startFill=1;" edge="1" parent="76" source="54" target="39"><mxGeometry relative="1" as="geometry"><Array as="points"><mxPoint x="310" y="270"/><mxPoint x="470" y="270"/></Array></mxGeometry></mxCell><mxCell id="64" style="edgeStyle=orthogonalEdgeStyle;rounded=0;orthogonalLoop=1;jettySize=auto;html=1;strokeColor=#B266FF;strokeWidth=2;fontColor=#000000;startArrow=classic;startFill=1;" edge="1" parent="76" source="63" target="39"><mxGeometry relative="1" as="geometry"><Array as="points"><mxPoint x="410" y="270"/><mxPoint x="470" y="270"/></Array></mxGeometry></mxCell><mxCell id="70" style="edgeStyle=orthogonalEdgeStyle;rounded=0;orthogonalLoop=1;jettySize=auto;html=1;strokeColor=#B266FF;strokeWidth=2;fontColor=#000000;startArrow=classic;startFill=1;" edge="1" parent="76" source="67" target="39"><mxGeometry relative="1" as="geometry"><Array as="points"><mxPoint x="510" y="270"/><mxPoint x="470" y="270"/></Array></mxGeometry></mxCell><mxCell id="82" style="edgeStyle=orthogonalEdgeStyle;rounded=0;orthogonalLoop=1;jettySize=auto;html=1;strokeColor=#B266FF;strokeWidth=2;fontColor=#000000;startArrow=classic;startFill=1;" edge="1" parent="76" source="73" target="39"><mxGeometry relative="1" as="geometry"><Array as="points"><mxPoint x="610" y="270"/><mxPoint x="470" y="270"/></Array></mxGeometry></mxCell><mxCell id="83" style="edgeStyle=orthogonalEdgeStyle;rounded=0;orthogonalLoop=1;jettySize=auto;html=1;strokeColor=#006EAF;strokeWidth=2;fontColor=#000000;startArrow=classic;startFill=1;fillColor=#1ba1e2;" edge="1" parent="76" source="73" target="42"><mxGeometry relative="1" as="geometry"><Array as="points"><mxPoint x="580" y="260"/><mxPoint x="350" y="260"/></Array></mxGeometry></mxCell><mxCell id="86" style="edgeStyle=orthogonalEdgeStyle;rounded=0;orthogonalLoop=1;jettySize=auto;html=1;strokeColor=#B266FF;strokeWidth=2;fontColor=#000000;startArrow=classic;startFill=1;" edge="1" parent="76" source="85" target="39"><mxGeometry relative="1" as="geometry"><Array as="points"><mxPoint x="695" y="270"/><mxPoint x="470" y="270"/></Array></mxGeometry></mxCell><mxCell id="87" style="edgeStyle=orthogonalEdgeStyle;rounded=0;orthogonalLoop=1;jettySize=auto;html=1;entryX=0.5;entryY=0;entryDx=0;entryDy=0;entryPerimeter=0;strokeColor=#006EAF;strokeWidth=2;fontColor=#000000;startArrow=classic;startFill=1;fillColor=#1ba1e2;" edge="1" parent="76" source="50" target="42"><mxGeometry relative="1" as="geometry"><Array as="points"><mxPoint x="60" y="260"/><mxPoint x="350" y="260"/></Array></mxGeometry></mxCell><mxCell id="88" style="edgeStyle=orthogonalEdgeStyle;rounded=0;orthogonalLoop=1;jettySize=auto;html=1;strokeColor=#B266FF;strokeWidth=2;fontColor=#000000;startArrow=classic;startFill=1;" edge="1" parent="76" source="50" target="39"><mxGeometry relative="1" as="geometry"><Array as="points"><mxPoint x="90" y="270"/><mxPoint x="470" y="270"/></Array></mxGeometry></mxCell><mxCell id="91" style="edgeStyle=orthogonalEdgeStyle;rounded=0;orthogonalLoop=1;jettySize=auto;html=1;strokeColor=#006EAF;strokeWidth=2;fontColor=#000000;startArrow=classic;startFill=1;fillColor=#1ba1e2;" edge="1" parent="76" source="90" target="42"><mxGeometry relative="1" as="geometry"><Array as="points"><mxPoint x="170" y="260"/><mxPoint x="350" y="260"/></Array></mxGeometry></mxCell><mxCell id="92" style="edgeStyle=orthogonalEdgeStyle;rounded=0;orthogonalLoop=1;jettySize=auto;html=1;strokeColor=#B266FF;strokeWidth=2;fontColor=#000000;startArrow=classic;startFill=1;" edge="1" parent="76" source="90" target="39"><mxGeometry relative="1" as="geometry"><Array as="points"><mxPoint x="200" y="270"/><mxPoint x="470" y="270"/></Array></mxGeometry></mxCell><mxCell id="93" style="edgeStyle=orthogonalEdgeStyle;rounded=0;orthogonalLoop=1;jettySize=auto;html=1;strokeColor=#2D7600;strokeWidth=2;fontColor=#000000;startArrow=classic;startFill=1;fillColor=#60a917;" edge="1" parent="76" source="90" target="44"><mxGeometry relative="1" as="geometry"><Array as="points"><mxPoint x="140" y="171"/><mxPoint x="140" y="280"/><mxPoint x="70" y="280"/></Array></mxGeometry></mxCell><mxCell id="94" style="edgeStyle=orthogonalEdgeStyle;rounded=0;orthogonalLoop=1;jettySize=auto;html=1;strokeColor=#BD7000;strokeWidth=2;fontColor=#000000;startArrow=classic;startFill=1;fillColor=#f0a30a;" edge="1" parent="76" source="90" target="43"><mxGeometry relative="1" as="geometry"><Array as="points"><mxPoint x="230" y="171"/><mxPoint x="230" y="280"/><mxPoint x="190" y="280"/></Array></mxGeometry></mxCell><mxCell id="96" value="" style="sketch=0;points=[[0,0,0],[0.25,0,0],[0.5,0,0],[0.75,0,0],[1,0,0],[0,1,0],[0.25,1,0],[0.5,1,0],[0.75,1,0],[1,1,0],[0,0.25,0],[0,0.5,0],[0,0.75,0],[1,0.25,0],[1,0.5,0],[1,0.75,0]];outlineConnect=0;fontColor=#232F3E;gradientColor=#F54749;gradientDirection=north;fillColor=#C7131F;strokeColor=#ffffff;dashed=0;verticalLabelPosition=bottom;verticalAlign=top;align=center;html=1;fontSize=12;fontStyle=0;aspect=fixed;shape=mxgraph.aws4.resourceIcon;resIcon=mxgraph.aws4.cloudhsm;" vertex="1" parent="76"><mxGeometry width="25" height="25" as="geometry"/></mxCell><mxCell id="97" style="edgeStyle=orthogonalEdgeStyle;rounded=0;orthogonalLoop=1;jettySize=auto;html=1;entryX=0.5;entryY=0;entryDx=0;entryDy=0;strokeColor=#A50040;strokeWidth=2;fontColor=#000000;startArrow=classic;startFill=1;fillColor=#d80073;" edge="1" parent="28" source="25" target="6"><mxGeometry relative="1" as="geometry"><Array as="points"><mxPoint x="130" y="180"/><mxPoint x="130" y="350"/><mxPoint x="270" y="350"/><mxPoint x="270" y="20"/><mxPoint x="675" y="20"/></Array></mxGeometry></mxCell><mxCell id="98" style="edgeStyle=orthogonalEdgeStyle;rounded=0;orthogonalLoop=1;jettySize=auto;html=1;entryX=0.5;entryY=0;entryDx=0;entryDy=0;strokeColor=#A50040;strokeWidth=2;fontColor=#000000;startArrow=classic;startFill=1;fillColor=#d80073;" edge="1" parent="28" source="26" target="6"><mxGeometry relative="1" as="geometry"><Array as="points"><mxPoint x="130" y="180"/><mxPoint x="130" y="350"/><mxPoint x="270" y="350"/><mxPoint x="270" y="20"/><mxPoint x="675" y="20"/></Array></mxGeometry></mxCell><mxCell id="32" value="Internet Gateway" style="sketch=0;outlineConnect=0;fontColor=#232F3E;gradientColor=none;fillColor=#4D27AA;strokeColor=none;dashed=0;verticalLabelPosition=top;verticalAlign=bottom;align=left;html=1;fontSize=12;fontStyle=0;aspect=fixed;pointerEvents=1;shape=mxgraph.aws4.internet_gateway;labelPosition=right;" vertex="1" parent="28"><mxGeometry x="128.5" y="-8" width="33" height="33" as="geometry"/></mxCell><mxCell id="36" style="edgeStyle=orthogonalEdgeStyle;rounded=0;orthogonalLoop=1;jettySize=auto;html=1;strokeWidth=2;startArrow=classic;startFill=1;fillColor=#d80073;strokeColor=#A50040;" edge="1" parent="28" source="32" target="25"><mxGeometry relative="1" as="geometry"><Array as="points"><mxPoint x="145" y="60"/><mxPoint x="80" y="60"/></Array></mxGeometry></mxCell><mxCell id="37" style="edgeStyle=orthogonalEdgeStyle;rounded=0;orthogonalLoop=1;jettySize=auto;html=1;strokeWidth=2;startArrow=classic;startFill=1;fillColor=#d80073;strokeColor=#A50040;" edge="1" parent="28" source="32" target="26"><mxGeometry relative="1" as="geometry"><Array as="points"><mxPoint x="145" y="60"/><mxPoint x="200" y="60"/></Array></mxGeometry></mxCell><mxCell id="34" style="edgeStyle=orthogonalEdgeStyle;rounded=0;orthogonalLoop=1;jettySize=auto;html=1;strokeWidth=2;fillColor=#d80073;strokeColor=#A50040;startArrow=classic;startFill=1;" edge="1" parent="1" source="12" target="32"><mxGeometry relative="1" as="geometry"><Array as="points"><mxPoint x="185" y="59"/></Array></mxGeometry></mxCell><mxCell id="12" value="Internet" style="sketch=0;outlineConnect=0;fontColor=#232F3E;gradientColor=none;fillColor=#232F3D;strokeColor=none;dashed=0;verticalLabelPosition=bottom;verticalAlign=top;align=center;html=1;fontSize=12;fontStyle=0;aspect=fixed;pointerEvents=1;shape=mxgraph.aws4.internet_alt2;" vertex="1" parent="1"><mxGeometry x="50" y="20" width="78" height="78" as="geometry"/></mxCell></root></mxGraphModel></diagram></mxfile>